<svg xmlns="http://www.w3.org/2000/svg"  viewBox="0 0 50 50" width="50px" height="50px"><path d="M 34.978516 4.6796875 C 34.836516 10.568687 33.987266 13.198406 33.947266 13.316406 C 33.808266 13.735406 33.419 14 33 14 C 32.896 14 32.788594 13.982266 32.683594 13.947266 C 32.160594 13.773266 31.877734 13.208594 32.052734 12.683594 C 32.059734 12.661594 32.774031 10.408484 32.957031 5.3964844 C 32.627031 7.1394844 30.298672 9.6149062 28.638672 11.003906 C 22.641672 11.141906 19.457609 14.678 18.474609 16 L 17 16 C 16.803 16 16.609313 16.058969 16.445312 16.167969 L 13.697266 18 L 11 18 C 10.692 18 10.401891 18.141766 10.212891 18.384766 C 10.023891 18.626766 9.9542969 18.944187 10.029297 19.242188 L 11.029297 23.242188 C 11.099297 23.525188 11.292734 23.763531 11.552734 23.894531 L 12.414062 24.324219 C 12.946063 24.699219 14.042 25.347 16 26 C 16 26 15.51175 25.014078 15.21875 24.080078 C 15.79875 23.422078 17.010063 22.287688 18.664062 22.054688 C 20.053062 21.862687 21.508953 22.338469 23.001953 23.480469 L 23.001953 24.210938 C 23.001953 25.075937 22.551328 25.963937 21.736328 26.710938 C 20.665328 27.692937 19.139 28.250531 17.875 28.144531 C 17.528 28.114531 17.316406 28.050781 17.316406 28.050781 L 17.316406 28.052734 C 16.876406 27.905734 16.393391 28.077609 16.150391 28.474609 C 15.906391 28.869609 15.965922 29.379031 16.294922 29.707031 L 18.408203 31.820312 C 18.999203 32.412312 19.820437 32.711969 20.648438 32.667969 C 21.511437 32.612969 22.317469 32.182375 22.855469 31.484375 C 23.478469 30.679375 25.283391 29.490094 28.400391 28.496094 C 28.480391 28.251094 28.548844 28.002094 28.589844 27.746094 C 28.811844 26.346094 28.367422 25.002625 27.232422 23.640625 C 26.878422 23.215625 26.935375 22.585422 27.359375 22.232422 C 27.785375 21.879422 28.416531 21.935375 28.769531 22.359375 C 30.277531 24.169375 30.880453 26.090313 30.564453 28.070312 C 30.084453 31.070312 27.582922 33.327547 26.294922 34.310547 C 25.968922 34.644547 25.906922 35.158687 26.169922 35.554688 C 26.449922 35.974688 26.997266 36.121484 27.447266 35.896484 L 30.072266 34.583984 C 30.003266 34.986984 29.847516 35.336719 29.603516 35.636719 C 29.262516 36.053719 28.768094 36.349641 28.246094 36.556641 C 27.537094 36.757641 26.753625 36.911812 25.890625 37.007812 C 25.363625 37.066812 24.974906 37.528594 25.003906 38.058594 C 25.031906 38.585594 25.469 39 26 39 C 26.053 39 26.559859 38.993906 27.255859 38.878906 C 30.145859 38.281906 33.154438 36.694203 34.023438 32.783203 C 34.124437 32.330203 34.522328 32.006 34.986328 32 C 35.449328 32.022 35.85675 32.307813 35.96875 32.757812 C 36.00875 32.913812 36.789703 36.232609 34.845703 41.974609 C 34.897703 41.982609 34.948953 42 35.001953 42 C 35.228953 42 35.454625 41.923531 35.640625 41.769531 C 45.259625 33.752531 42.651469 24.985859 40.855469 21.255859 C 42.144469 22.157859 43.059266 24.343047 43.072266 24.373047 C 43.251266 24.816047 43.710406 25.066469 44.191406 24.980469 C 44.660406 24.889469 45 24.479 45 24 C 45 15.965 38.978422 12.332609 36.982422 11.349609 C 36.817422 8.0056094 35.434516 5.4416875 34.978516 4.6796875 z M 23 7 C 13.075 7 5 15.075 5 25 C 5 34.925 13.075 43 23 43 C 23.553 43 24 42.553 24 42 C 24 41.447 23.553 41 23 41 C 14.178 41 7 33.822 7 25 C 7 16.178 14.178 9 23 9 C 24.604 9 26.186078 9.236125 27.705078 9.703125 C 28.242078 9.869125 28.794078 9.5680156 28.955078 9.0410156 C 29.117078 8.5130156 28.821922 7.9530156 28.294922 7.7910156 C 26.583922 7.2670156 24.803 7 23 7 z M 23 15.064453 L 21.716797 17 L 20.136719 17.023438 L 21.150391 15.861328 L 23 15.064453 z M 33.945312 37.371094 C 32.145313 39.461094 29.532078 40.510172 26.955078 40.951172 C 26.119078 42.653172 25.501734 44.663406 26.052734 46.316406 C 26.167734 46.663406 26.464219 46.920375 26.824219 46.984375 C 26.883219 46.995375 26.941 47 27 47 C 27.301 47 27.588297 46.864 27.779297 46.625 C 27.807297 46.591 29.827031 44.102672 32.707031 42.013672 C 33.366031 40.209672 33.745312 38.647094 33.945312 37.371094 z"/></svg>