<!-- icon666.com - MILLIONS OF FREE VECTOR ICONS --><svg viewBox="0 0 32 32" xmlns="http://www.w3.org/2000/svg"><g id="favorite"><path d="m30 12.77a1 1 0 0 0 -.79-.68l-8.41-1.32-3.91-7.59a1 1 0 0 0 -1.78 0l-3.86 7.59-8.41 1.32a1 1 0 0 0 -.55 1.7l6 6-1.29 8.42a1 1 0 0 0 1.44 1l7.56-3.83 7.58 3.87a.91.91 0 0 0 .45.11 1 1 0 0 0 .59-.19 1 1 0 0 0 .4-1l-1.34-8.37 6-6a1 1 0 0 0 .32-1.03zm-8 6a1 1 0 0 0 -.29.86l1.12 7-6.28-3.21a1 1 0 0 0 -.92 0l-6.37 3.16 1.12-7a1 1 0 0 0 -.29-.86l-5-5 7-1.09a1 1 0 0 0 .74-.54l3.17-6.25 3.19 6.29a1 1 0 0 0 .74.54l7 1.09z"></path></g></svg>