<!-- icon666.com - MILLIONS OF FREE VECTOR ICONS --><svg version="1.1" id="Capa_1" xmlns="http://www.w3.org/2000/svg" xmlns:xlink="http://www.w3.org/1999/xlink" x="0px" y="0px" viewBox="0 0 490 490" style="enable-background:new 0 0 490 490;" xml:space="preserve"><path d="M135.313,348.209c39.619,39.503,77.04,76.814,96.016,114.528l13.681,27.191l13.678-27.193 c18.971-37.717,56.392-75.032,96.012-114.538c66.352-66.162,134.963-134.578,135.299-221.081c0.13-33.21-12.887-64.64-36.653-88.499 c-24.759-24.856-57.964-38.545-93.498-38.545c-49.654,0-92.903,27.27-114.84,67.266c-21.94-39.996-65.195-67.266-114.856-67.266 C58.385,0.072,0,57.037,0,127.056C0.332,213.624,68.953,282.043,135.313,348.209z M130.152,15.384 c63.441,0,114.857,49.977,114.857,111.672c0-61.695,51.398-111.672,114.839-111.672c63.422,0,115.081,49.977,114.839,111.672 c-0.508,130.64-177.679,225.414-229.678,328.798C192.99,352.471,15.813,257.697,15.312,127.056 C15.312,65.361,66.717,15.384,130.152,15.384z"></path></svg>